<svg width="20" height="21" viewBox="0 0 20 21" fill="none" xmlns="http://www.w3.org/2000/svg">
<path d="M7.21371 5.29675C7.06294 5.44753 6.97058 5.65705 6.97088 5.88716L6.97088 5.98844C6.97088 6.44924 7.34391 6.82227 7.80412 6.82168L12.357 6.82168L4.65529 14.5234C4.33002 14.8487 4.33002 15.3767 4.65529 15.7019C4.98056 16.0272 5.50853 16.0272 5.8338 15.7019L13.5356 8.00019V12.5531C13.5356 13.0139 13.9086 13.3869 14.3688 13.3864H14.4701C14.9309 13.3864 15.3039 13.0133 15.3033 12.5531V5.88716C15.3033 5.42636 14.9303 5.05333 14.4701 5.05391L7.80412 5.05391C7.57372 5.05391 7.36449 5.14598 7.21371 5.29675Z" fill="#00E03C"/>
</svg>
