<svg width="10" height="11" viewBox="0 0 10 11" fill="none" xmlns="http://www.w3.org/2000/svg">
<path d="M8.14636 3.42285C8.24824 3.42287 8.34088 3.46785 8.41394 3.54297C8.48188 3.62316 8.51567 3.72296 8.50574 3.82812C8.50456 3.87756 8.23325 7.31096 8.078 8.75781C7.98046 9.64742 7.40706 10.1873 6.54675 10.2021C5.88514 10.217 5.2382 10.2227 4.60144 10.2227C3.92554 10.2227 3.26454 10.217 2.62292 10.2021C1.79142 10.1822 1.21746 9.63261 1.12488 8.75781C0.965175 7.30594 0.698388 3.87795 0.692261 3.82812C0.68729 3.72284 0.72132 3.62321 0.789917 3.54297C0.85743 3.46796 0.954287 3.42297 1.05652 3.42285H8.14636ZM5.65515 0C6.10688 0 6.51087 0.31507 6.62781 0.764648L6.71082 1.13867C6.77855 1.44258 7.04249 1.65723 7.34558 1.65723H8.83582C9.03438 1.65739 9.19984 1.82248 9.20007 2.03223V2.22656C9.20007 2.43141 9.03451 2.60139 8.83582 2.60156H0.365112C0.165782 2.60156 -0.00012207 2.43152 -0.00012207 2.22656V2.03223C0.000109854 1.82237 0.165922 1.65723 0.365112 1.65723H1.85535C2.15792 1.65706 2.42106 1.44215 2.48914 1.13867L2.56726 0.790039C2.68858 0.315284 3.08802 0 3.5448 0H5.65515Z" fill="#E71D36"/>
</svg>
