<svg width="24" height="24" viewBox="0 0 24 24" fill="none" xmlns="http://www.w3.org/2000/svg">
<path fill-rule="evenodd" clip-rule="evenodd" d="M6.85002 8.00002C6.85002 6.26033 8.26033 4.85002 10 4.85002C11.7397 4.85002 13.15 6.26033 13.15 8.00002C13.15 9.73972 11.7397 11.15 10 11.15C8.26033 11.15 6.85002 9.73972 6.85002 8.00002ZM10 3.15002C7.32144 3.15002 5.15002 5.32144 5.15002 8.00002C5.15002 10.6786 7.32144 12.85 10 12.85C12.6786 12.85 14.85 10.6786 14.85 8.00002C14.85 5.32144 12.6786 3.15002 10 3.15002ZM4.85002 17.9167C4.85002 17.5137 5.17867 16.9979 6.21839 16.5388C7.20792 16.1018 8.58426 15.85 10 15.85C11.3957 15.85 12.7709 16.1431 13.7679 16.6047C14.2669 16.8357 14.6328 17.0912 14.863 17.3378C15.0846 17.5753 15.1477 17.7656 15.15 17.9085C15.1419 17.9301 15.1051 17.9982 14.9627 18.1088C14.7443 18.2786 14.3797 18.4616 13.865 18.6271C12.8446 18.955 11.4363 19.15 10 19.15C8.30152 19.15 6.90338 18.9521 5.96133 18.6316C5.48766 18.4704 5.18108 18.2955 5.00771 18.1425C4.84896 18.0024 4.84988 17.9287 4.85002 17.9174L4.85002 17.9167ZM15.1519 17.9011C15.1521 17.9011 15.1519 17.903 15.1506 17.9068C15.1511 17.903 15.1517 17.9011 15.1519 17.9011ZM10 14.15C8.41579 14.15 6.79212 14.4271 5.53166 14.9837C4.32137 15.5181 3.15002 16.4607 3.15002 17.9167C3.15002 18.5456 3.46758 19.0507 3.88296 19.4173C4.28772 19.7744 4.82489 20.0406 5.41372 20.241C6.59666 20.6435 8.19852 20.85 10 20.85C11.5637 20.85 13.1555 20.6407 14.3851 20.2455C14.9953 20.0494 15.5683 19.7913 16.0061 19.451C16.4404 19.1134 16.85 18.6034 16.85 17.9167C16.85 17.2271 16.5361 16.639 16.1058 16.1779C15.6797 15.7213 15.1082 15.3518 14.4821 15.062C13.2291 14.4819 11.6043 14.15 10 14.15ZM16.1539 11.9185C16.199 11.4512 16.6143 11.1089 17.0816 11.1539C18.2957 11.2709 19.4222 11.5866 20.2734 12.0788C21.0978 12.5555 21.85 13.32 21.85 14.3733C21.85 14.9192 21.6411 15.4171 21.2349 15.8126C20.852 16.1855 20.3292 16.435 19.7319 16.6043C19.2802 16.7323 18.8103 16.47 18.6823 16.0184C18.5542 15.5667 18.8165 15.0968 19.2682 14.9688C19.7158 14.8419 19.943 14.6978 20.0488 14.5947C20.1314 14.5143 20.15 14.4536 20.15 14.3733C20.15 14.2166 20.0328 13.9034 19.4224 13.5505C18.8389 13.213 17.9654 12.947 16.9185 12.8461C16.4512 12.8011 16.1089 12.3858 16.1539 11.9185ZM18 3.15002C17.5306 3.15002 17.15 3.53058 17.15 4.00002C17.15 4.46947 17.5306 4.85002 18 4.85002C18.9113 4.85002 19.65 5.58875 19.65 6.50002C19.65 7.41129 18.9113 8.15002 18 8.15002C17.5306 8.15002 17.15 8.53058 17.15 9.00002C17.15 9.46947 17.5306 9.85002 18 9.85002C19.8502 9.85002 21.35 8.35018 21.35 6.50002C21.35 4.64987 19.8502 3.15002 18 3.15002Z" fill="black"/>
</svg>
