<svg width="17" height="16" viewBox="0 0 17 16" fill="none" xmlns="http://www.w3.org/2000/svg">
<path d="M1.83333 8.5H1V5.16667C1 4.24619 1.74619 3.5 2.66667 3.5H6M1.83333 8.5V13.5C1.83333 14.4205 2.57952 15.1667 3.5 15.1667H13.5C14.4205 15.1667 15.1667 14.4205 15.1667 13.5V8.5M1.83333 8.5H6.83333M6 3.5V2.66667C6 1.74619 6.74619 1 7.66667 1H9.33333C10.2538 1 11 1.74619 11 2.66667V3.5M6 3.5H11M15.1667 8.5H16V5.16667C16 4.24619 15.2538 3.5 14.3333 3.5H11M15.1667 8.5H10.1667M6.83333 8.5V6.83333H10.1667V8.5M6.83333 8.5V10.1667H10.1667V8.5" stroke="#24282C" stroke-linecap="round" stroke-linejoin="round"/>
</svg>
