<svg width="16" height="16" viewBox="0 0 16 16" fill="none" xmlns="http://www.w3.org/2000/svg">
<g clip-path="url(#clip0_3248_15489)">
<path d="M4.02512 10.5427C3.88456 10.4238 3.67422 10.4414 3.55534 10.582C3.50834 10.6376 3.46284 10.6935 3.42012 10.748C3.30669 10.893 3.33222 11.1025 3.47715 11.216C3.53812 11.2638 3.61053 11.2869 3.6824 11.2869C3.7814 11.2869 3.87937 11.243 3.94509 11.159C3.98265 11.111 4.02278 11.0617 4.06444 11.0125C4.18328 10.8719 4.16572 10.6616 4.02512 10.5427Z" fill="black"/>
<path d="M7.99997 2.00009C8.05706 2.00009 8.11369 2.00194 8.16834 2.0055C8.17584 2.00603 8.18319 2.00619 8.19053 2.00619C8.36462 2.00619 8.51122 1.87094 8.52284 1.69472C8.53488 1.51097 8.39575 1.35228 8.21203 1.34022C8.14291 1.33572 8.07159 1.33337 8 1.33337C7.81591 1.33337 7.66666 1.48269 7.66666 1.66672C7.66663 1.85087 7.81588 2.00009 7.99997 2.00009Z" fill="black"/>
<path d="M15.6667 15.3333H15.1667V14.3332C15.1667 12.9894 14.7925 11.6793 14.0844 10.5446C13.4525 9.53197 12.579 8.69437 11.5463 8.10531C11.6793 7.75591 11.7867 7.2855 11.8989 6.60375C11.9168 6.49534 11.9358 6.40444 11.9577 6.29919C11.981 6.18734 12.0083 6.05675 12.0397 5.87609H12.2711C12.4551 5.87609 12.6044 5.72687 12.6044 5.54275C12.6044 5.18359 12.4611 4.87375 12.2108 4.61091C12.2117 4.60325 12.2126 4.59559 12.2133 4.58831C12.2331 4.41591 12.2391 4.36162 12.2405 4.33381C12.2663 3.85106 12.235 3.47016 12.1451 3.16941C11.856 2.2015 11.3075 1.39394 10.5588 0.833937C9.82947 0.288406 8.94462 0 8.00003 0C7.05544 0 6.17059 0.288406 5.44116 0.834C4.69247 1.39403 4.14391 2.20156 3.85484 3.16937C3.7665 3.46487 3.73481 3.83681 3.75797 4.30616C3.75956 4.33894 3.76766 4.42141 3.78447 4.58894C3.78528 4.59687 3.78609 4.60506 3.78691 4.61328C3.53787 4.87559 3.39544 5.18466 3.39544 5.54278C3.39544 5.72687 3.54472 5.87612 3.72878 5.87612H3.96016C3.99116 6.05419 4.01781 6.18241 4.04231 6.29975C4.06422 6.40481 4.08319 6.49559 4.10097 6.60391C4.21319 7.28562 4.32056 7.75594 4.45359 8.10534C3.42094 8.69441 2.54741 9.53197 1.91556 10.5447C1.20759 11.6794 0.833313 12.9895 0.833313 14.3332V15.3333H0.333313C0.14925 15.3333 0 15.4825 0 15.6666C0 15.8506 0.14925 15.9999 0.333344 15.9999H1.16669H3.66663H12.3333H14.8333H15.6667C15.8508 15.9999 16 15.8506 16 15.6666C16 15.4825 15.8508 15.3333 15.6667 15.3333ZM4.49366 3.36019C4.98991 1.69878 6.33347 0.666687 8.00003 0.666687C9.66656 0.666687 11.0102 1.69878 11.5063 3.36034C11.5647 3.55534 11.5896 3.82094 11.5809 4.14922C11.3831 4.04356 11.1627 3.95037 10.9242 3.86944C10.9027 3.65934 10.8449 3.47762 10.8357 3.44962C10.5536 2.59381 9.98897 1.9355 9.24581 1.59591C9.07831 1.51947 8.88056 1.59309 8.80406 1.76056C8.72756 1.928 8.80125 2.12581 8.96869 2.20231C9.54109 2.46384 9.97922 2.98094 10.2025 3.65806C10.2039 3.66256 10.2055 3.66756 10.2071 3.67275C9.52625 3.52431 8.76203 3.45275 7.99994 3.45275C6.65688 3.45275 5.30694 3.67475 4.41919 4.14906C4.41047 3.82003 4.43544 3.55494 4.49366 3.36019ZM4.16406 5.20937C4.37334 4.878 4.85859 4.655 5.178 4.53828C5.90619 4.27209 6.93478 4.11941 7.99997 4.11941C9.06516 4.11941 10.0937 4.27206 10.8219 4.53828C11.1413 4.655 11.6266 4.87797 11.8358 5.20937H4.16406ZM11.3624 5.87606C11.3416 5.98809 11.3227 6.07859 11.3051 6.16303C11.2826 6.27109 11.2613 6.37312 11.2412 6.49559C10.9612 8.19587 10.7847 8.30809 10.0415 8.78084C9.91741 8.85975 9.77716 8.94894 9.62106 9.05462C8.54528 9.67175 7.45475 9.67181 6.379 9.05475C6.22281 8.94903 6.08253 8.85981 5.95847 8.7809C5.21525 8.30809 5.03869 8.19581 4.75878 6.49559C4.73866 6.37331 4.71744 6.27144 4.69494 6.16362C4.67731 6.07906 4.65844 5.98844 4.63753 5.87606H11.3624ZM11.9999 15.3333H3.99994V13.9999H7.66669V14.6666C7.66669 14.8507 7.81594 15 8.00003 15C8.18406 15 8.33337 14.8507 8.33337 14.6666V13.9999H11.9999L11.9999 15.3333ZM4.61703 13.3332L5.45038 12.6666H7.66672V13.3332H4.61703ZM8.33337 13.3332V12.6666H10.5497L11.3831 13.3332H8.33337ZM14.4999 15.3332H12.6665V13.682C12.6667 13.6768 12.6673 13.6717 12.6673 13.6665C12.6673 13.5631 12.6198 13.4709 12.5457 13.4098C12.5452 13.4094 12.5448 13.4091 12.5443 13.4087C12.5391 13.4044 12.534 13.3998 12.5284 13.3958L10.8747 12.073C10.8156 12.0257 10.7422 11.9999 10.6665 11.9999H5.33341C5.25772 11.9999 5.18428 12.0257 5.12519 12.073L3.45844 13.4062C3.45788 13.4067 3.45738 13.4072 3.45684 13.4077C3.45391 13.41 3.45116 13.4126 3.44831 13.4151C3.44362 13.4192 3.439 13.4232 3.43459 13.4276C3.43178 13.4302 3.42913 13.433 3.42647 13.4358C3.42216 13.4403 3.41806 13.4448 3.41409 13.4494C3.41159 13.4523 3.40913 13.4552 3.40672 13.4582C3.40263 13.4632 3.39878 13.4685 3.39503 13.4738C3.39306 13.4765 3.39103 13.4791 3.38913 13.4819C3.38409 13.4895 3.37934 13.4973 3.37497 13.5053C3.37281 13.5092 3.37091 13.5132 3.36888 13.5172C3.36666 13.5217 3.36438 13.5263 3.36231 13.5309C3.36025 13.5355 3.35834 13.5402 3.35647 13.545C3.35481 13.5492 3.35325 13.5535 3.35175 13.5578C3.35009 13.5627 3.34837 13.5676 3.34694 13.5725C3.34541 13.5777 3.34413 13.583 3.34288 13.5883C3.34128 13.595 3.33984 13.6017 3.33866 13.6085C3.33753 13.6149 3.33647 13.6213 3.33569 13.6278C3.33522 13.6318 3.33497 13.6358 3.33463 13.6399C3.33409 13.6464 3.33378 13.653 3.33366 13.6595C3.33359 13.6619 3.33328 13.6642 3.33328 13.6665V15.3332H1.5V14.3332C1.5 11.9818 2.74828 9.84512 4.77722 8.68725C4.92559 8.8695 5.10459 9.0135 5.33053 9.16703C5.00316 9.33662 4.69044 9.53781 4.40081 9.76566C4.25612 9.87953 4.23112 10.0891 4.34497 10.2337C4.41075 10.3173 4.50844 10.3609 4.60712 10.3609C4.67925 10.3609 4.75197 10.3376 4.81303 10.2895C5.07544 10.0831 5.35919 9.90109 5.65641 9.74872L5.97403 9.58587C5.98778 9.59509 6.00106 9.60384 6.015 9.61328C6.02166 9.61778 6.02847 9.62209 6.03544 9.62612C6.67938 9.99787 7.34 10.1865 7.99891 10.1866C7.99925 10.1866 7.9995 10.1866 7.99981 10.1866C8.65906 10.1866 9.32013 9.998 9.96447 9.626C9.97144 9.62197 9.97819 9.61775 9.98484 9.61316C10.137 9.50997 10.2763 9.42144 10.3993 9.34322C10.7589 9.11444 11.0196 8.93666 11.2227 8.68715C13.2517 9.84509 14.4999 11.9817 14.4999 14.3331V15.3332Z" fill="black"/>
</g>
<defs>
<clipPath id="clip0_3248_15489">
<rect width="16" height="16" fill="white"/>
</clipPath>
</defs>
</svg>
