<svg width="24" height="24" viewBox="0 0 24 24" fill="none" xmlns="http://www.w3.org/2000/svg">
<g clip-path="url(#clip0_3248_15413)">
<path d="M22 3.54995V6.99995C22 7.26516 21.8946 7.51952 21.7071 7.70705C21.5196 7.89459 21.2652 7.99995 21 7.99995H17.5C17.355 8.00159 17.2115 7.9717 17.0792 7.91234C16.947 7.85298 16.8292 7.76558 16.7341 7.65619C16.6389 7.5468 16.5687 7.41804 16.5283 7.27882C16.4879 7.13961 16.4782 6.99327 16.5 6.84995C16.547 6.60737 16.6781 6.38914 16.8701 6.23366C17.0622 6.07819 17.3029 5.99543 17.55 5.99995H18.7C17.5352 4.70283 16.0188 3.77192 14.335 3.32031C12.6512 2.86869 10.8725 2.91583 9.21498 3.45598C7.55746 3.99613 6.09248 5.00605 4.99806 6.36303C3.90363 7.72 3.22687 9.36563 3.05 11.0999C3.02512 11.3475 2.90888 11.5768 2.72397 11.7433C2.53906 11.9097 2.29876 12.0012 2.05 11.9999C1.90982 12.0007 1.77106 11.9719 1.64272 11.9155C1.51439 11.8591 1.39934 11.7764 1.30504 11.6726C1.21075 11.5689 1.13931 11.4465 1.09538 11.3134C1.05144 11.1803 1.03598 11.0394 1.05 10.8999C1.26002 8.80051 2.0694 6.80576 3.38164 5.15355C4.69388 3.50135 6.4536 2.2614 8.45099 1.58155C10.4484 0.901697 12.5991 0.810635 14.6469 1.31922C16.6946 1.8278 18.5528 2.91457 20 4.44995V3.49995C19.9984 3.35499 20.0282 3.21142 20.0876 3.07916C20.147 2.94691 20.2344 2.82914 20.3438 2.73402C20.4531 2.6389 20.5819 2.5687 20.7211 2.52828C20.8603 2.48786 21.0067 2.47819 21.15 2.49995C21.3926 2.54697 21.6108 2.67804 21.7663 2.8701C21.9218 3.06216 22.0045 3.30289 22 3.54995Z" fill="black"/>
<path d="M1.99999 20.4499V16.9999C1.99999 16.7347 2.10535 16.4803 2.29289 16.2928C2.48042 16.1052 2.73478 15.9999 2.99999 15.9999H6.49999C6.64495 15.9982 6.78852 16.0281 6.92078 16.0875C7.05303 16.1469 7.1708 16.2343 7.26592 16.3436C7.36104 16.453 7.43124 16.5818 7.47166 16.721C7.51208 16.8602 7.52175 17.0066 7.49999 17.1499C7.45297 17.3925 7.3219 17.6107 7.12984 17.7662C6.93778 17.9216 6.69705 18.0044 6.44999 17.9999H5.29999C6.46475 19.297 7.98115 20.2279 9.66495 20.6795C11.3488 21.1311 13.1275 21.084 14.785 20.5439C16.4425 20.0037 17.9075 18.9938 19.0019 17.6368C20.0964 16.2798 20.7731 14.6342 20.95 12.8999C20.9749 12.6524 21.0911 12.423 21.276 12.2566C21.4609 12.0902 21.7012 11.9986 21.95 11.9999C22.0902 11.9992 22.2289 12.028 22.3573 12.0844C22.4856 12.1407 22.6007 12.2235 22.6949 12.3272C22.7892 12.4309 22.8607 12.5533 22.9046 12.6864C22.9486 12.8195 22.964 12.9604 22.95 13.0999C22.74 15.1993 21.9306 17.1941 20.6184 18.8463C19.3061 20.4985 17.5464 21.7384 15.549 22.4183C13.5516 23.0981 11.4008 23.1892 9.35313 22.6806C7.30543 22.172 5.44719 21.0853 3.99999 19.5499V20.4999C4.00163 20.6448 3.97174 20.7884 3.91238 20.9207C3.85303 21.0529 3.76563 21.1707 3.65624 21.2658C3.54685 21.3609 3.41808 21.4311 3.27887 21.4716C3.13965 21.512 2.99331 21.5216 2.84999 21.4999C2.60741 21.4529 2.38918 21.3218 2.23371 21.1297C2.07824 20.9377 1.99548 20.6969 1.99999 20.4499Z" fill="black"/>
<path d="M12.35 11C10.6 10.65 10.6 10.35 10.6 10.1C10.6 9.85 10.7 9.8 10.85 9.65C11.1259 9.5017 11.4373 9.43249 11.75 9.45C12.331 9.44496 12.902 9.6007 13.4 9.9C13.5012 9.9826 13.6192 10.0422 13.7458 10.0746C13.8723 10.107 14.0044 10.1115 14.1329 10.0877C14.2614 10.0639 14.3831 10.0124 14.4897 9.93682C14.5962 9.86124 14.6851 9.76337 14.75 9.65C14.8357 9.54775 14.8989 9.4286 14.9355 9.30031C14.9721 9.17201 14.9813 9.03744 14.9624 8.90537C14.9435 8.7733 14.8971 8.64668 14.826 8.53376C14.755 8.42084 14.6609 8.32416 14.55 8.25C14.0746 7.95653 13.5491 7.75314 13 7.65V6.5C13 6.23478 12.8946 5.98043 12.7071 5.79289C12.5196 5.60536 12.2652 5.5 12 5.5C11.7348 5.5 11.4804 5.60536 11.2929 5.79289C11.1054 5.98043 11 6.23478 11 6.5V7.6C9.5 7.85 8.5 8.85 8.5 10.2C8.5 11.55 10.15 12.65 11.75 12.95C13.35 13.25 13.4 13.6 13.4 13.85C13.4 14.1 12.85 14.55 12.15 14.55C11.4138 14.5645 10.6933 14.3361 10.1 13.9C9.9889 13.8261 9.86413 13.7752 9.73305 13.7503C9.60197 13.7254 9.46723 13.727 9.33677 13.7549C9.20631 13.7829 9.08276 13.8366 8.9734 13.9131C8.86404 13.9895 8.77108 14.0871 8.7 14.2C8.62116 14.2938 8.5623 14.4027 8.52702 14.52C8.49173 14.6373 8.48078 14.7606 8.49482 14.8823C8.50887 15.004 8.54761 15.1216 8.60869 15.2278C8.66976 15.334 8.75188 15.4266 8.85 15.5C9.49339 15.9515 10.2268 16.2585 11 16.4V17.5C11 17.7652 11.1054 18.0196 11.2929 18.2071C11.4804 18.3946 11.7348 18.5 12 18.5C12.2652 18.5 12.5196 18.3946 12.7071 18.2071C12.8946 18.0196 13 17.7652 13 17.5V16.4C13.5485 16.3191 14.0659 16.0949 14.5 15.75C14.8134 15.5199 15.0676 15.2185 15.2415 14.8707C15.4154 14.523 15.504 14.1388 15.5 13.75C15.5 11.9 13.8 11.3 12.35 11Z" fill="black"/>
</g>
<defs>
<clipPath id="clip0_3248_15413">
<rect width="24" height="24" fill="white"/>
</clipPath>
</defs>
</svg>
