<svg width="16" height="16" viewBox="0 0 16 16" fill="none" xmlns="http://www.w3.org/2000/svg">
<path d="M3.69061 11.2321H12.306V6.94353C12.306 4.55399 10.3774 2.61676 7.9983 2.61676C5.61922 2.61676 3.69061 4.55399 3.69061 6.94353V11.2321ZM7.9983 1.38599C11.0568 1.38599 13.5368 3.87399 13.5368 6.94353V12.4629H2.45984V6.94353C2.45984 3.87399 4.93984 1.38599 7.9983 1.38599ZM6.45984 13.0783H9.53676C9.53676 13.4863 9.37467 13.8776 9.08616 14.1662C8.79764 14.4547 8.40633 14.6168 7.9983 14.6168C7.59027 14.6168 7.19896 14.4547 6.91044 14.1662C6.62193 13.8776 6.45984 13.4863 6.45984 13.0783Z" fill="black"/>
</svg>
