<svg width="16" height="16" viewBox="0 0 16 16" fill="none" xmlns="http://www.w3.org/2000/svg">
<path d="M14.4325 13.25C13.4806 11.6044 12.0138 10.4244 10.3019 9.86499C11.1486 9.3609 11.8065 8.59279 12.1745 7.67861C12.5425 6.76444 12.6002 5.75474 12.3388 4.80459C12.0774 3.85444 11.5113 3.01636 10.7275 2.41907C9.94367 1.82178 8.98546 1.49829 8 1.49829C7.01454 1.49829 6.05633 1.82178 5.27252 2.41907C4.4887 3.01636 3.92262 3.85444 3.66121 4.80459C3.39981 5.75474 3.45752 6.76444 3.82549 7.67861C4.19347 8.59279 4.85136 9.3609 5.69813 9.86499C3.98625 10.4237 2.51938 11.6037 1.5675 13.25C1.53259 13.3069 1.50944 13.3702 1.49941 13.4363C1.48937 13.5023 1.49266 13.5696 1.50908 13.6343C1.5255 13.6991 1.55471 13.7598 1.595 13.8131C1.63528 13.8663 1.68582 13.911 1.74364 13.9444C1.80146 13.9778 1.86538 13.9992 1.93163 14.0075C1.99788 14.0158 2.06513 14.0108 2.12939 13.9926C2.19365 13.9745 2.25364 13.9437 2.30581 13.902C2.35797 13.8604 2.40126 13.8087 2.43313 13.75C3.61063 11.715 5.69188 10.5 8 10.5C10.3081 10.5 12.3894 11.715 13.5669 13.75C13.5987 13.8087 13.642 13.8604 13.6942 13.902C13.7464 13.9437 13.8063 13.9745 13.8706 13.9926C13.9349 14.0108 14.0021 14.0158 14.0684 14.0075C14.1346 13.9992 14.1985 13.9778 14.2564 13.9444C14.3142 13.911 14.3647 13.8663 14.405 13.8131C14.4453 13.7598 14.4745 13.6991 14.4909 13.6343C14.5073 13.5696 14.5106 13.5023 14.5006 13.4363C14.4906 13.3702 14.4674 13.3069 14.4325 13.25ZM4.5 5.99999C4.5 5.30776 4.70527 4.63107 5.08986 4.0555C5.47444 3.47992 6.02107 3.03132 6.66061 2.76641C7.30015 2.50151 8.00389 2.43219 8.68282 2.56724C9.36175 2.70229 9.98539 3.03563 10.4749 3.52512C10.9644 4.0146 11.2977 4.63824 11.4328 5.31718C11.5678 5.99611 11.4985 6.69984 11.2336 7.33938C10.9687 7.97892 10.5201 8.52555 9.9445 8.91014C9.36893 9.29472 8.69224 9.49999 8 9.49999C7.07205 9.499 6.18239 9.12993 5.52622 8.47377C4.87006 7.81761 4.50099 6.92794 4.5 5.99999Z" fill="#24282C"/>
</svg>
