<svg width="24" height="24" viewBox="0 0 24 24" fill="none" xmlns="http://www.w3.org/2000/svg">
<path fill-rule="evenodd" clip-rule="evenodd" d="M8.69963 7.85C8.69963 6.1103 10.1099 4.7 11.8496 4.7C13.5893 4.7 14.9996 6.1103 14.9996 7.85C14.9996 9.5897 13.5893 11 11.8496 11C10.1099 11 8.69963 9.5897 8.69963 7.85ZM11.8496 3C9.17105 3 6.99963 5.17142 6.99963 7.85C6.99963 10.5286 9.17105 12.7 11.8496 12.7C14.5282 12.7 16.6996 10.5286 16.6996 7.85C16.6996 5.17142 14.5282 3 11.8496 3ZM6.69963 17.7667C6.69963 17.3637 7.02828 16.8479 8.068 16.3888C9.05753 15.9518 10.4339 15.7 11.8496 15.7C13.2453 15.7 14.6205 15.9931 15.6175 16.4547C16.1165 16.6857 16.4824 16.9412 16.7126 17.1878C16.9342 17.4253 16.9973 17.6156 16.9996 17.7585C16.9915 17.78 16.9547 17.8481 16.8124 17.9588C16.5939 18.1286 16.2293 18.3116 15.7146 18.477C14.6942 18.8049 13.2859 19 11.8496 19C10.1511 19 8.75299 18.8021 7.81093 18.4816C7.33727 18.3204 7.03069 18.1455 6.85732 17.9925C6.69857 17.8524 6.69949 17.7779 6.69963 17.7667ZM11.8496 14C10.2654 14 8.64173 14.277 7.38127 14.8337C6.17098 15.3681 4.99963 16.3107 4.99963 17.7667C4.99963 18.3956 5.31719 18.9007 5.73257 19.2672C6.13733 19.6244 6.6745 19.8906 7.26333 20.091C8.44627 20.4935 10.0481 20.7 11.8496 20.7C13.4133 20.7 15.0051 20.4907 16.2347 20.0955C16.845 19.8994 17.4179 19.6413 17.8557 19.301C18.29 18.9634 18.6996 18.4534 18.6996 17.7667C18.6996 17.0771 18.3858 16.4889 17.9554 16.0278C17.5293 15.5713 16.9578 15.2018 16.3317 14.912C15.0787 14.3319 13.4539 14 11.8496 14Z" fill="black"/>
</svg>
