<svg width="20" height="21" viewBox="0 0 20 21" fill="none" xmlns="http://www.w3.org/2000/svg">
<path d="M12.7863 15.7032C12.9371 15.5525 13.0294 15.3429 13.0292 15.1128L13.0292 15.0116C13.0292 14.5508 12.6561 14.1777 12.1959 14.1783L7.64299 14.1783L15.3447 6.47656C15.67 6.15129 15.67 5.62332 15.3447 5.29805C15.0195 4.97278 14.4915 4.97278 14.1662 5.29805L6.46448 12.9998L6.46448 8.44689C6.46448 7.98609 6.09144 7.61305 5.63123 7.61364L5.52995 7.61364C5.06916 7.61364 4.69612 7.98668 4.69671 8.44689L4.69671 15.1128C4.69671 15.5736 5.06975 15.9467 5.52996 15.9461L12.1959 15.9461C12.4263 15.9461 12.6355 15.854 12.7863 15.7032Z" fill="#FF1F25"/>
</svg>
