<svg width="16" height="16" viewBox="0 0 16 16" fill="none" xmlns="http://www.w3.org/2000/svg">
<path d="M5.99963 2.34375V6.84375L2.09963 9.09375C1.83928 7.68853 2.08907 6.23652 2.80404 4.99908C3.51901 3.76164 4.65219 2.82004 5.99963 2.34375Z" fill="black" fill-opacity="0.1"/>
<path d="M6.25009 7.27688C6.32612 7.23298 6.38925 7.16985 6.43313 7.09381C6.47702 7.01778 6.50011 6.93154 6.50009 6.84375V2.34375C6.49965 2.26403 6.48015 2.18558 6.44322 2.11493C6.40629 2.04428 6.35301 1.98349 6.28781 1.93762C6.22261 1.89175 6.14739 1.86213 6.06842 1.85124C5.98945 1.84035 5.90902 1.84849 5.83384 1.875C4.37445 2.39151 3.14717 3.41165 2.3726 4.75204C1.59804 6.09244 1.327 7.66516 1.60822 9.1875C1.62279 9.26622 1.65606 9.34029 1.70522 9.40349C1.75438 9.46668 1.818 9.51714 1.89072 9.55063C1.95625 9.58127 2.02775 9.59706 2.10009 9.59688C2.18785 9.59691 2.27407 9.57385 2.35009 9.53L6.25009 7.27688ZM5.50009 3.10125V6.555L2.50759 8.28188C2.50009 8.1875 2.50009 8.0925 2.50009 8C2.50098 6.98648 2.78152 5.99285 3.31084 5.12853C3.84015 4.2642 4.59771 3.5627 5.50009 3.10125ZM13.6463 4.7825C13.6407 4.77125 13.6351 4.75938 13.6282 4.74813C13.6213 4.73688 13.6157 4.7275 13.6088 4.7175C13.0358 3.73863 12.2166 2.92667 11.2327 2.36225C10.2488 1.79783 9.13439 1.50058 8.00009 1.5C7.86748 1.5 7.74031 1.55268 7.64654 1.64645C7.55277 1.74021 7.50009 1.86739 7.50009 2V7.73938L2.57447 10.6081C2.51731 10.6413 2.46728 10.6854 2.42728 10.738C2.38728 10.7906 2.3581 10.8505 2.34142 10.9145C2.32474 10.9784 2.3209 11.045 2.33011 11.1104C2.33932 11.1758 2.36141 11.2388 2.39509 11.2956C3.11776 12.5262 4.22534 13.4848 5.54692 14.0234C6.86849 14.562 8.33059 14.6507 9.70759 14.2758C11.0846 13.901 12.2999 13.0833 13.1661 11.9491C14.0322 10.8149 14.501 9.42712 14.5001 8C14.5015 6.87133 14.2072 5.76198 13.6463 4.7825ZM8.50009 2.5225C9.29309 2.59549 10.0608 2.83972 10.7502 3.23833C11.4396 3.63693 12.0343 4.18042 12.4932 4.83125L8.50009 7.15688V2.5225ZM8.00009 13.5C7.12723 13.4978 6.2673 13.2889 5.49069 12.8904C4.71407 12.4919 4.04286 11.9152 3.53197 11.2075L8.24447 8.46313L8.25822 8.45438L12.9938 5.69625C13.3804 6.53422 13.5499 7.45597 13.4867 8.37662C13.4235 9.29728 13.1296 10.1872 12.6322 10.9645C12.1348 11.7418 11.4498 12.3815 10.6404 12.8245C9.83087 13.2676 8.92291 13.4999 8.00009 13.5Z" fill="white"/>
</svg>
