<svg width="8" height="8" viewBox="0 0 8 8" fill="none" xmlns="http://www.w3.org/2000/svg">
<path d="M7.55143 7.08984C7.79897 7.08984 8.00055 7.29418 8.00065 7.54492C8.00065 7.79623 7.79904 8 7.55143 8H5.01335C4.76587 7.99985 4.56511 7.79613 4.56511 7.54492C4.56521 7.29428 4.76594 7.09 5.01335 7.08984H7.55143ZM4.1071 0.42578C4.51262 -0.0948869 5.22008 -0.143058 5.79069 0.310546L6.44694 0.831053C6.71577 1.04127 6.89442 1.31891 6.95573 1.61035C7.02644 1.93084 6.95104 2.24531 6.73893 2.51758L2.83366 7.56836C2.65453 7.79733 2.39074 7.92578 2.10808 7.93066L0.551435 7.95019C0.466542 7.95019 0.395495 7.89274 0.37663 7.81152L0.0231142 6.27832C-0.0381971 5.99644 0.023584 5.70502 0.202802 5.48047L2.97038 1.89648C3.01755 1.8392 3.10325 1.83054 3.15983 1.87305L4.3239 2.7998C4.39935 2.86191 4.50351 2.89519 4.61198 2.88086C4.84297 2.85221 4.99866 2.6424 4.97526 2.41797C4.96111 2.3033 4.90424 2.20741 4.82878 2.13574C4.80148 2.11365 3.69694 1.22754 3.69694 1.22754C3.62647 1.17015 3.61211 1.06522 3.66862 0.994139L4.1071 0.42578Z" fill="#605BFF"/>
</svg>
