<svg width="16" height="16" viewBox="0 0 16 16" fill="none" xmlns="http://www.w3.org/2000/svg">
<g clip-path="url(#clip0_3248_15520)">
<path d="M7.99954 10C9.10411 10 9.99954 9.10461 9.99954 8.00004C9.99954 6.89547 9.10411 6.00004 7.99954 6.00004C6.89497 6.00004 5.99954 6.89547 5.99954 8.00004C5.99954 9.10461 6.89497 10 7.99954 10Z" stroke="#24282C" stroke-width="1.5"/>
<path d="M9.17647 1.43487C8.93141 1.33337 8.62081 1.33337 7.99954 1.33337C7.37827 1.33337 7.06767 1.33337 6.82261 1.43487C6.49592 1.57019 6.23635 1.82976 6.10103 2.15646C6.03925 2.3056 6.01507 2.47904 6.00561 2.73203C5.99171 3.10383 5.80105 3.44797 5.47883 3.63399C5.15663 3.82001 4.76327 3.81307 4.43433 3.63921C4.21051 3.52091 4.04821 3.45512 3.88817 3.43405C3.53757 3.38789 3.18299 3.4829 2.90245 3.69817C2.69203 3.85963 2.53672 4.12864 2.22609 4.66666C1.91547 5.20469 1.76016 5.47369 1.72554 5.73665C1.67938 6.08724 1.77439 6.44181 1.98966 6.72237C2.08791 6.85044 2.22601 6.95804 2.44033 7.09271C2.75541 7.29071 2.95813 7.62797 2.95811 8.00004C2.95809 8.37211 2.75537 8.70931 2.44033 8.90724C2.22597 9.04197 2.08786 9.14964 1.9896 9.27771C1.77432 9.55824 1.67932 9.91277 1.72548 10.2634C1.76009 10.5263 1.9154 10.7954 2.22603 11.3334C2.53666 11.8714 2.69197 12.1404 2.90238 12.3018C3.18293 12.5171 3.5375 12.6121 3.8881 12.566C4.04813 12.5449 4.21042 12.4791 4.43423 12.3608C4.76319 12.187 5.15658 12.18 5.47881 12.366C5.80103 12.5521 5.99171 12.8962 6.00561 13.2681C6.01508 13.521 6.03925 13.6945 6.10103 13.8436C6.23635 14.1703 6.49592 14.4299 6.82261 14.5652C7.06767 14.6667 7.37827 14.6667 7.99954 14.6667C8.62081 14.6667 8.93141 14.6667 9.17647 14.5652C9.50314 14.4299 9.76274 14.1703 9.89801 13.8436C9.95981 13.6945 9.98401 13.521 9.99347 13.268C10.0073 12.8962 10.198 12.5521 10.5202 12.366C10.8424 12.18 11.2358 12.187 11.5648 12.3608C11.7886 12.4791 11.9509 12.5448 12.1109 12.5659C12.4615 12.6121 12.8161 12.5171 13.0966 12.3018C13.307 12.1404 13.4623 11.8714 13.7729 11.3333C14.0836 10.7953 14.2389 10.5263 14.2735 10.2634C14.3197 9.91277 14.2247 9.55817 14.0094 9.27764C13.9111 9.14957 13.773 9.04191 13.5587 8.90724C13.2437 8.70931 13.0409 8.37204 13.0409 7.99997C13.0409 7.62791 13.2437 7.29077 13.5587 7.09284C13.7731 6.95811 13.9112 6.85051 14.0095 6.72237C14.2247 6.44186 14.3197 6.08729 14.2736 5.73669C14.239 5.47374 14.0837 5.20473 13.773 4.66671C13.4624 4.12869 13.3071 3.85967 13.0967 3.69822C12.8161 3.48295 12.4615 3.38794 12.1109 3.4341C11.9509 3.45517 11.7887 3.52095 11.5648 3.63924C11.2359 3.8131 10.8425 3.82005 10.5203 3.63401C10.198 3.44798 10.0073 3.10381 9.99347 2.732C9.98401 2.47903 9.95981 2.30559 9.89801 2.15646C9.76274 1.82976 9.50314 1.57019 9.17647 1.43487Z" stroke="#24282C" stroke-width="1.5"/>
</g>
<defs>
<clipPath id="clip0_3248_15520">
<rect width="16" height="16" fill="white"/>
</clipPath>
</defs>
</svg>
