<svg width="24" height="24" viewBox="0 0 24 24" fill="none" xmlns="http://www.w3.org/2000/svg">
<path d="M5.94494 8.8071C5.94494 8.40946 5.62257 8.0871 5.22494 8.0871C4.82733 8.0871 4.50497 8.40946 4.50497 8.8071H5.94494ZM10.3744 8.8071C10.3744 8.40946 10.052 8.0871 9.65438 8.0871C9.25675 8.0871 8.93438 8.40946 8.93438 8.8071H10.3744ZM4.50507 8.79473C4.49825 9.19232 4.81501 9.52016 5.21256 9.52699C5.61019 9.53383 5.93803 9.21706 5.94484 8.81946L4.50507 8.79473ZM5.95444 8.26074C5.96126 7.86316 5.64456 7.53532 5.24692 7.52848C4.84935 7.52165 4.52151 7.83842 4.51467 8.23601L5.95444 8.26074ZM5.92334 8.98225C6.02011 8.59655 5.78587 8.20546 5.40014 8.10873C5.01442 8.012 4.62334 8.24625 4.5266 8.63195L5.92334 8.98225ZM5.07422 9.40806L5.77089 9.58996L5.77262 9.58321L5.07422 9.40806ZM2.08996 10.073C1.7632 9.84644 1.31461 9.92765 1.08802 10.2544C0.861433 10.5812 0.942639 11.0298 1.26941 11.2563L2.08996 10.073ZM2.39965 10.6721C2.40373 10.2745 2.08469 9.94881 1.68707 9.94474C1.28944 9.94066 0.963807 10.2597 0.959727 10.6573L2.39965 10.6721ZM1.62689 15.817L2.34684 15.8257L2.34685 15.8244L1.62689 15.817ZM5.51966 18.4801C5.91729 18.4801 6.23966 18.1577 6.23966 17.7601C6.23966 17.3624 5.91729 17.0401 5.51966 17.0401V18.4801ZM1.26762 11.2551C1.5937 11.4827 2.04253 11.4028 2.27011 11.0767C2.4977 10.7507 2.41784 10.3018 2.09176 10.0743L1.26762 11.2551ZM0.795529 8.24838L0.120591 7.99767C0.112585 8.01922 0.105615 8.04113 0.0997111 8.06335L0.795529 8.24838ZM1.59713 6.0903L2.27208 6.341C2.27902 6.32232 2.28517 6.30336 2.29054 6.28416L1.59713 6.0903ZM2.66177 5.28006V4.56006H2.65969L2.66177 5.28006ZM12.2166 5.28006L12.2187 4.56006H12.2166V5.28006ZM13.2813 6.0903L12.5879 6.28417C12.5932 6.30332 12.5994 6.32225 12.6063 6.34091L13.2813 6.0903ZM14.0829 8.24934L14.7788 8.06438C14.7728 8.04218 14.7659 8.02027 14.7578 7.99873L14.0829 8.24934ZM12.7873 10.0745C12.4613 10.3023 12.3817 10.7511 12.6095 11.0771C12.8373 11.403 13.2862 11.4826 13.6121 11.2549L12.7873 10.0745ZM4.79969 17.7601C4.79969 18.1577 5.12203 18.4801 5.51966 18.4801C5.91729 18.4801 6.23966 18.1577 6.23966 17.7601H4.79969ZM8.63966 17.7601C8.63966 18.1577 8.96203 18.4801 9.35966 18.4801C9.75729 18.4801 10.0797 18.1577 10.0797 17.7601H8.63966ZM5.51966 17.0401C5.12203 17.0401 4.79969 17.3624 4.79969 17.7601C4.79969 18.1577 5.12203 18.4801 5.51966 18.4801V17.0401ZM9.35966 18.4801C9.75729 18.4801 10.0797 18.1577 10.0797 17.7601C10.0797 17.3624 9.75729 17.0401 9.35966 17.0401V18.4801ZM8.93448 8.81576C8.93928 9.21337 9.26548 9.53183 9.66312 9.52705C10.0607 9.52226 10.3792 9.19605 10.3744 8.79844L8.93448 8.81576ZM10.3677 8.23972C10.3629 7.84211 10.0367 7.52365 9.63902 7.52843C9.24139 7.53322 8.92296 7.85942 8.92776 8.25704L10.3677 8.23972ZM10.3555 8.63116C10.2583 8.24557 9.86692 8.01176 9.48139 8.10893C9.09576 8.2061 8.8619 8.59745 8.95915 8.98304L10.3555 8.63116ZM9.80798 9.40518L9.10977 9.58113L9.11131 9.58683L9.80798 9.40518ZM13.609 11.257C13.9361 11.031 14.0181 10.5826 13.7921 10.2555C13.566 9.92827 13.1176 9.8463 12.7904 10.0723L13.609 11.257ZM13.9197 10.6577C13.9158 10.2601 13.5904 9.94088 13.1927 9.94474C12.7951 9.94859 12.4759 10.2741 12.4798 10.6717L13.9197 10.6577ZM13.2496 15.817L12.5297 15.824V15.8257L13.2496 15.817ZM9.35966 17.0401C8.96203 17.0401 8.63966 17.3624 8.63966 17.7601C8.63966 18.1577 8.96203 18.4801 9.35966 18.4801V17.0401ZM4.50497 8.8071C4.50497 10.4279 5.81889 11.7418 7.43966 11.7418V10.3018C6.61416 10.3018 5.94494 9.63261 5.94494 8.8071H4.50497ZM7.43966 11.7418C9.06052 11.7418 10.3744 10.4279 10.3744 8.8071H8.93438C8.93438 9.63261 8.26516 10.3018 7.43966 10.3018V11.7418ZM5.94484 8.81946L5.95444 8.26074L4.51467 8.23601L4.50507 8.79473L5.94484 8.81946ZM4.5266 8.63195L4.37588 9.23291L5.77262 9.58321L5.92334 8.98225L4.5266 8.63195ZM4.37761 9.22617C4.25483 9.69637 3.91019 10.077 3.45446 10.2457L3.95438 11.5961C4.85115 11.2641 5.52936 10.5152 5.77089 9.58996L4.37761 9.22617ZM3.45446 10.2457C2.99872 10.4144 2.48931 10.3499 2.08996 10.073L1.26941 11.2563C2.05522 11.8012 3.05761 11.9282 3.95438 11.5961L3.45446 10.2457ZM0.959727 10.6573L0.906927 15.8096L2.34685 15.8244L2.39965 10.6721L0.959727 10.6573ZM0.906947 15.8084C0.89847 16.514 1.17288 17.1937 1.66889 17.6956L2.69318 16.6835C2.46771 16.4553 2.34299 16.1464 2.34684 15.8257L0.906947 15.8084ZM1.66889 17.6956C2.16491 18.1976 2.84125 18.4802 3.54695 18.4801L3.54689 17.0401C3.22611 17.0401 2.91864 16.9117 2.69318 16.6835L1.66889 17.6956ZM3.54695 18.4801H5.51966V17.0401H3.54689L3.54695 18.4801ZM2.09176 10.0743C1.56671 9.70783 1.3268 9.0522 1.49135 8.43341L0.0997111 8.06335C-0.220362 9.26699 0.246294 10.5423 1.26762 11.2551L2.09176 10.0743ZM1.47048 8.49908L2.27208 6.341L0.922191 5.83959L0.120591 7.99767L1.47048 8.49908ZM2.29054 6.28416C2.33738 6.1166 2.48986 6.00056 2.66385 6.00006L2.65969 4.56006C1.84128 4.56243 1.12409 5.10825 0.903721 5.89644L2.29054 6.28416ZM2.66177 6.00006H12.2166V4.56006H2.66177V6.00006ZM12.2146 6.00006C12.3886 6.00056 12.541 6.1166 12.5879 6.28417L13.9747 5.89643C13.7543 5.10825 13.0371 4.56243 12.2187 4.56006L12.2146 6.00006ZM12.6063 6.34091L13.4079 8.49995L14.7578 7.99873L13.9562 5.83969L12.6063 6.34091ZM13.3871 8.43429C13.5514 9.05273 13.3118 9.70798 12.7873 10.0745L13.6121 11.2549C14.6325 10.5419 15.0984 9.26736 14.7788 8.06438L13.3871 8.43429ZM6.23966 17.7601V14.8801H4.79969V17.7601H6.23966ZM6.23966 14.8801C6.23966 14.7475 6.34718 14.6401 6.47966 14.6401V13.2001C5.55182 13.2001 4.79969 13.9522 4.79969 14.8801H6.23966ZM6.47966 14.6401H8.39966V13.2001H6.47966V14.6401ZM8.39966 14.6401C8.53224 14.6401 8.63966 14.7475 8.63966 14.8801H10.0797C10.0797 13.9522 9.3275 13.2001 8.39966 13.2001V14.6401ZM8.63966 14.8801V17.7601H10.0797V14.8801H8.63966ZM5.51966 18.4801H9.35966V17.0401H5.51966V18.4801ZM10.3744 8.79844L10.3677 8.23972L8.92776 8.25704L8.93448 8.81576L10.3744 8.79844ZM8.95915 8.98304L9.10977 9.58113L10.5062 9.22924L10.3555 8.63116L8.95915 8.98304ZM9.11131 9.58683C9.35236 10.5115 10.0295 11.2603 10.9252 11.5929L11.4265 10.2431C10.9713 10.074 10.6272 9.69343 10.5047 9.22353L9.11131 9.58683ZM10.9252 11.5929C11.821 11.9257 12.8228 11.8003 13.609 11.257L12.7904 10.0723C12.3909 10.3484 11.8818 10.4121 11.4265 10.2431L10.9252 11.5929ZM12.4798 10.6717L12.5297 15.824L13.9696 15.81L13.9197 10.6577L12.4798 10.6717ZM12.5297 15.8257C12.5335 16.1464 12.4088 16.4553 12.1833 16.6835L13.2076 17.6956C13.7037 17.1937 13.978 16.514 13.9696 15.8084L12.5297 15.8257ZM12.1833 16.6835C11.9579 16.9117 11.6504 17.0401 11.3297 17.0401L11.3296 18.4801C12.0353 18.4802 12.7116 18.1976 13.2076 17.6956L12.1833 16.6835ZM11.3297 17.0401H9.35966V18.4801H11.3296L11.3297 17.0401Z" fill="#24282C"/>
</svg>
