<svg width="20" height="20" viewBox="0 0 20 20" fill="none" xmlns="http://www.w3.org/2000/svg">
<g clip-path="url(#clip0_3344_2899)">
<path d="M13.3334 13.3333L10 10L6.66669 13.3333" stroke="#1C1D22" stroke-width="2" stroke-linecap="round" stroke-linejoin="round"/>
<path d="M10 10V17.5" stroke="#1C1D22" stroke-width="2" stroke-linecap="round" stroke-linejoin="round"/>
<path d="M16.9917 15.3249C17.8045 14.8818 18.4466 14.1806 18.8166 13.3321C19.1866 12.4835 19.2635 11.5359 19.0352 10.6388C18.8069 9.7417 18.2863 8.94616 17.5556 8.37778C16.8249 7.80939 15.9257 7.50052 15 7.4999H13.95C13.6978 6.52427 13.2277 5.61852 12.575 4.85073C11.9223 4.08295 11.1041 3.47311 10.1818 3.06708C9.25949 2.66104 8.25715 2.46937 7.25013 2.50647C6.2431 2.54358 5.25758 2.80849 4.36768 3.28129C3.47777 3.7541 2.70662 4.42249 2.11221 5.23622C1.5178 6.04996 1.1156 6.98785 0.935844 7.9794C0.756086 8.97095 0.803449 9.99035 1.07437 10.961C1.3453 11.9316 1.83273 12.8281 2.50003 13.5832" stroke="#1C1D22" stroke-width="2" stroke-linecap="round" stroke-linejoin="round"/>
<path d="M13.3334 13.3333L10 10L6.66669 13.3333" stroke="#1C1D22" stroke-width="2" stroke-linecap="round" stroke-linejoin="round"/>
</g>
<defs>
<clipPath id="clip0_3344_2899">
<rect width="20" height="20" fill="white"/>
</clipPath>
</defs>
</svg>
